<?xml version="1.0" standalone="no"?>
<!DOCTYPE svg PUBLIC "-//W3C//DTD SVG 20010904//EN"
 "http://www.w3.org/TR/2001/REC-SVG-20010904/DTD/svg10.dtd">
<svg version="1.0" xmlns="http://www.w3.org/2000/svg"
 width="8200.000000pt" height="3600.000000pt" viewBox="0 0 8200.000000 3600.000000"
 preserveAspectRatio="xMidYMid meet">
<metadata>
Created by potrace 1.16, written by Peter Selinger 2001-2019
</metadata>
<g transform="translate(0.000000,3600.000000) scale(0.100000,-0.100000)"
fill="#000000" stroke="none">
<path d="M34227 23733 c-4 -3 -7 -534 -7 -1180 l0 -1173 -97 49 c-358 178
-773 254 -1158 211 -1091 -122 -1906 -1066 -1862 -2155 18 -434 152 -816 410
-1165 82 -111 260 -296 367 -383 289 -234 653 -390 1027 -443 162 -22 513 -15
656 15 221 45 428 117 585 201 l72 39 0 -134 0 -135 530 0 530 0 -2 3128 -3
3127 -521 3 c-286 1 -524 -1 -527 -5z m-891 -3144 c427 -59 777 -390 866 -819
29 -137 21 -356 -16 -485 -112 -388 -418 -666 -813 -741 -118 -22 -325 -15
-438 14 -376 99 -652 374 -752 750 -22 84 -26 118 -27 252 0 179 17 267 82
417 184 428 631 677 1098 612z"/>
<path d="M26775 23723 c-425 -28 -917 -145 -1319 -314 -1266 -533 -2202 -1668
-2475 -3004 -64 -315 -76 -442 -76 -845 0 -321 3 -384 22 -525 51 -371 130
-675 260 -1005 350 -886 1003 -1634 1840 -2109 217 -123 536 -261 788 -341
572 -181 1238 -235 1840 -149 1215 175 2295 877 2946 1916 l80 128 -792 5
c-688 4 -781 7 -702 17 425 58 849 277 1171 604 806 819 798 2129 -19 2939
-314 312 -718 518 -1149 585 -75 11 9 13 703 14 l789 1 -27 48 c-97 167 -292
438 -431 597 -733 841 -1721 1341 -2829 1435 -110 9 -499 11 -620 3z m1775
-2098 c-204 -32 -401 -95 -596 -190 -572 -280 -987 -809 -1123 -1430 -33 -154
-45 -274 -44 -455 1 -445 128 -838 391 -1210 88 -125 347 -384 469 -470 282
-198 589 -325 905 -374 85 -13 25 -14 -727 -15 -501 -1 -865 3 -935 10 -741
67 -1376 505 -1694 1169 -150 313 -216 635 -203 980 18 437 154 822 418 1175
338 453 884 760 1451 814 46 5 463 8 928 9 738 0 834 -2 760 -13z m573 -1049
c123 -31 220 -74 324 -141 155 -101 305 -276 378 -440 230 -518 13 -1125 -490
-1370 -131 -65 -223 -91 -362 -105 -197 -20 -385 14 -568 104 -589 289 -764
1045 -365 1574 163 217 419 364 695 401 106 15 281 4 388 -23z"/>
<path d="M41586 21679 c-224 -30 -442 -96 -643 -194 l-133 -64 0 115 0 114
-525 0 -525 0 0 -2085 0 -2085 525 0 525 0 0 1123 c0 704 4 1165 11 1237 60
657 409 1245 955 1606 109 72 274 162 364 199 l45 18 -35 9 c-49 13 -481 19
-564 7z"/>
<path d="M46850 21674 c-220 -31 -442 -100 -642 -200 l-108 -54 0 115 0 115
-525 0 -525 0 0 -2085 0 -2085 525 0 525 0 0 1159 c0 1240 1 1259 51 1485 70
317 238 657 451 911 202 242 508 473 779 587 43 18 79 36 79 39 0 25 -457 35
-610 13z"/>
<path d="M42805 21659 c-676 -90 -1243 -473 -1578 -1065 -100 -176 -187 -421
-228 -637 -27 -141 -37 -458 -20 -603 57 -481 261 -904 601 -1244 329 -330
743 -535 1198 -595 131 -17 400 -20 522 -4 364 45 712 185 1008 406 92 68 282
252 357 343 60 73 195 269 195 283 0 4 -434 8 -987 7 -706 -2 -1002 1 -1038 9
-266 61 -499 217 -646 432 -58 86 -123 228 -151 329 -20 75 -23 106 -22 270 0
171 2 192 28 275 111 370 384 638 742 731 l99 26 988 -2 c543 0 987 2 987 6 0
16 -133 207 -202 289 -323 387 -754 638 -1248 727 -131 23 -484 34 -605 17z"/>
<path d="M56865 21653 c-740 -49 -1409 -498 -1735 -1165 -324 -662 -279 -1441
118 -2048 481 -735 1327 -1089 2190 -915 530 108 1009 432 1315 892 37 55 67
103 67 106 0 3 -440 8 -977 10 -858 3 -986 5 -1043 20 -255 63 -465 197 -609
387 -34 45 -61 85 -61 91 0 5 560 10 1453 11 l1452 3 12 48 c46 187 65 484 44
686 -75 721 -509 1342 -1162 1665 -320 159 -700 233 -1064 209z m301 -1054
c173 -24 352 -102 495 -217 78 -62 189 -188 232 -261 l18 -31 -906 0 c-864 0
-905 1 -896 18 25 46 109 150 169 209 231 225 556 328 888 282z"/>
<path d="M37320 21644 c-14 -2 -65 -9 -115 -15 -114 -14 -323 -67 -440 -112
-646 -248 -1138 -808 -1294 -1474 -50 -214 -67 -517 -41 -729 104 -848 723
-1557 1545 -1769 188 -48 326 -65 538 -65 264 0 450 31 685 112 400 137 758
403 1008 748 46 63 114 172 114 182 0 4 -447 9 -992 10 l-993 3 -79 23 c-244
71 -453 216 -585 406 l-52 76 1459 0 1460 0 16 73 c43 194 59 495 36 687 -59
484 -270 913 -616 1252 -118 115 -183 169 -310 253 -237 159 -522 271 -814
321 -90 15 -471 28 -530 18z m375 -1056 c147 -22 321 -98 442 -191 32 -24 90
-78 128 -118 68 -72 151 -186 143 -195 -3 -2 -411 -3 -906 -2 l-902 3 42 65
c53 81 183 212 267 269 232 158 494 214 786 169z"/>
<path d="M48070 21634 c-851 -115 -1546 -736 -1754 -1570 -42 -167 -58 -304
-59 -494 0 -341 61 -613 208 -915 309 -639 921 -1077 1625 -1164 126 -16 412
-13 541 5 714 99 1342 579 1627 1243 237 551 225 1180 -32 1716 -106 220 -212
374 -377 548 -334 354 -794 582 -1284 637 -124 14 -369 11 -495 -6z m446
-1039 c219 -38 396 -128 556 -283 418 -404 421 -1078 8 -1491 -126 -126 -294
-223 -478 -273 -65 -18 -106 -22 -257 -22 -158 -1 -190 2 -264 22 -201 55
-328 129 -476 277 -124 124 -187 219 -241 363 -49 132 -66 228 -66 377 1 183
28 307 103 458 208 420 657 651 1115 572z"/>
<path d="M50590 18520 l0 -3130 523 2 522 3 3 1177 2 1177 74 -40 c197 -106
462 -188 706 -218 126 -16 412 -13 541 5 365 50 719 203 1009 434 97 77 283
266 351 355 225 295 369 636 420 995 20 141 18 459 -5 595 -72 439 -256 813
-552 1124 -637 669 -1621 842 -2446 430 l-98 -49 0 135 0 135 -525 0 -525 0 0
-3130z m2344 2046 c370 -96 648 -379 747 -761 20 -77 23 -113 23 -245 -1 -133
-5 -168 -27 -252 -99 -375 -377 -651 -751 -750 -121 -31 -330 -36 -456 -10
-389 81 -684 354 -796 737 -38 128 -45 347 -16 485 65 312 259 569 540 713 95
49 223 92 317 107 107 16 308 5 419 -24z"/>
</g>
</svg>
